<svg xmlns="http://www.w3.org/2000/svg" viewBox="0 0 166.67 64"><defs><style>.cls-1{fill:#141451;}.cls-2{fill:#dc1b3f;}.cls-3{fill:#002d72;}</style></defs><title>Монтажная область 1 копияit_rating_w</title><g id="Слой_1" data-name="Слой 1"><path class="cls-1" d="M53.7,19V39H49.3V19Z"/><path class="cls-1" d="M72.4,19v3.7h-6V39H62V22.8H56V19Z"/><path class="cls-1" d="M82.74,19.09a.2.2,0,0,1,.18-.11c.46,0,.92.06,1.38.08s.92,0,1.38,0c1.84,0,3.68-.17,5.52-.13a19.62,19.62,0,0,1,4.31.59A5.6,5.6,0,0,1,98.1,21a5,5,0,0,1,1.17,3,6.27,6.27,0,0,1-.57,3.36,4.37,4.37,0,0,1-2.49,2.25,4.1,4.1,0,0,1,2.7,3.25c.33,1.44.23,3,.45,4.42a3.57,3.57,0,0,0,.73,1.87h-4.5c-.61-1.59-.4-3.37-.7-5a3.37,3.37,0,0,0-.79-1.78,3.11,3.11,0,0,0-1.49-.78c-1.82-.46-3.74,0-5.61-.2V39H82.7V19.91C82.7,19.73,82.62,19.29,82.74,19.09ZM87,22.5V28h4.2a5.3,5.3,0,0,0,2.8-.6c.7-.4,1-1.1,1-2.3A2.09,2.09,0,0,0,94,23a5.4,5.4,0,0,0-2.7-.6H87Z"/><path class="cls-1" d="M115.8,39h-4c-.1-.4-.2-.8-.3-1.4a6.41,6.41,0,0,1-4.7,1.8,5.59,5.59,0,0,1-3.8-1.2,4,4,0,0,1-1.4-3.2,4.21,4.21,0,0,1,.39-2,4,4,0,0,1,1.22-1.36c1.44-1,3.32-1.06,5-1.31a10.75,10.75,0,0,0,2.5-.55,1.08,1.08,0,0,0,.7-1.1c0-1.3-.9-1.9-2.6-1.9a3.44,3.44,0,0,0-2,.5A2.48,2.48,0,0,0,106,29h-3.7c.2-3.3,2.5-4.9,6.7-4.9s6.3,1.6,6.3,4.7v6.3A8.14,8.14,0,0,0,115.8,39Zm-4.4-7a10.92,10.92,0,0,1-2.8.8,5.62,5.62,0,0,0-2.3.7,1.89,1.89,0,0,0-.6,1.5,1.68,1.68,0,0,0,.6,1.4,2.54,2.54,0,0,0,1.6.5,3.74,3.74,0,0,0,2.6-.9,3.31,3.31,0,0,0,1-2.4V32Z"/><path class="cls-1" d="M126.4,24.5v2.7h-2.9v7.7a1.42,1.42,0,0,0,.2.6,1,1,0,0,0,.5.4,2.79,2.79,0,0,0,1,.1,4.12,4.12,0,0,0,1.2-.1v3a22.75,22.75,0,0,1-2.4.1c-1.7,0-2.9-.3-3.5-.9s-.9-1.8-.9-3.5V27.1H117V24.4h2.4V20h4v4.4h3Z"/><path class="cls-1" d="M132.4,19v3.4h-4V19Zm0,5.5V39h-4V24.5Z"/><path class="cls-1" d="M149.1,39h-4V30.6a4.62,4.62,0,0,0-.5-2.3,2.22,2.22,0,0,0-2-.8c-2.1,0-3.1,1.3-3.1,3.8V39h-4V24.5h3.8v2a5.7,5.7,0,0,1,4.8-2.4,4.92,4.92,0,0,1,3.7,1.3,5.17,5.17,0,0,1,1.3,3.8Z"/><path class="cls-1" d="M166,24.5v13c0,2.4-.6,4.1-1.8,5.2a7.76,7.76,0,0,1-5.4,1.7c-4.1,0-6.4-1.5-6.8-4.5h4a2,2,0,0,0,.9,1.4,3.74,3.74,0,0,0,2,.4c1.3,0,2.1-.3,2.5-.9a5.22,5.22,0,0,0,.7-2.8V36.4a5.19,5.19,0,0,1-4.4,2.2,5.55,5.55,0,0,1-4.5-1.9,7.74,7.74,0,0,1-1.7-5.2,8,8,0,0,1,1.7-5.3,6,6,0,0,1,4.6-2,6.18,6.18,0,0,1,2.5.5,5.16,5.16,0,0,1,1.8,1.8V24.6H166Zm-4.7,3.8a3.1,3.1,0,0,0-2.5-1.1,3.25,3.25,0,0,0-2.5,1.1,4.77,4.77,0,0,0-.9,3.1,4.48,4.48,0,0,0,.9,3,2.84,2.84,0,0,0,2.5,1.1,3,3,0,0,0,2.4-1.1,5,5,0,0,0,.9-3.1A4.26,4.26,0,0,0,161.3,28.3Z"/></g><g id="Слой_2" data-name="Слой 2"><path class="cls-2" d="M34.75,30.91l-.14.12,0,0-3.08,2.43-.24.19c-4.41,3.5-4.5,5.84,1.76,11.06l-4-2.62-4-3.37s-8.1-6.25-2.3-12c.14-.14.68-.6.81-.75L28,22.4a5.42,5.42,0,1,1,6.72,8.51Z"/><path class="cls-3" d="M33.66,52.35a5.7,5.7,0,0,1-3.94,1.92c-2,.12-3.58-1.16-5.06-2.4L21.27,49l-7-5.88-.85-.72a5.45,5.45,0,0,1-.68-7.68,5.36,5.36,0,0,1,.8-.78l10-7.92c-.13.14-.28.28-.42.44-5.8,5.71,2.31,11.89,2.31,11.89l3.72,3.12L33,44.75a5.48,5.48,0,0,1,1.91,3.59A5.24,5.24,0,0,1,33.66,52.35Z"/><path class="cls-3" d="M2.16,23.91l.6-.48c1.44-1.12,3-2.19,4.32-3.44a4.77,4.77,0,0,0,1.75-3.53A6,6,0,0,0,7,13c-.27-.31-.56-.61-.86-.91s-.68-.66-1-1-.77-.69-1.16-1l4.13,3,4.05,3s8,6.19,2.13,11.85c-.14.15-.81.68-1,.82L8.82,32.46A5.41,5.41,0,0,1,.64,30.57a4.67,4.67,0,0,1-.44-1.2,5.4,5.4,0,0,1,0-2.3A5.29,5.29,0,0,1,1.13,25,6.4,6.4,0,0,1,2.16,23.91Z"/><path class="cls-2" d="M3.37,2.45A5.41,5.41,0,0,1,11,1.83h0l12.6,10.71a5.46,5.46,0,0,1,.61,7.69,5.83,5.83,0,0,1-.8.77L13.34,28.85c.14-.14.28-.28.44-.42,5.84-5.66-2.23-11.92-2.23-11.92l-3.7-3.14L4,10.09a5.42,5.42,0,0,1-.62-7.64Z"/></g></svg>