<?xml version="1.0" encoding="utf-8"?>
<!-- Generator: Adobe Illustrator 19.2.0, SVG Export Plug-In . SVG Version: 6.00 Build 0)  -->
<svg version="1.1" id="Слой_1" xmlns="http://www.w3.org/2000/svg" xmlns:xlink="http://www.w3.org/1999/xlink" x="0px" y="0px"
	 viewBox="0 0 651 253.2" style="enable-background:new 0 0 651 253.2;" xml:space="preserve">
<style type="text/css">
	.st0{fill:#212121;}
	.st1{fill:url(#SVGID_1_);}
	.st2{fill:url(#SVGID_2_);}
	.st3{fill:url(#SVGID_3_);}
	.st4{fill:url(#SVGID_4_);}
</style>
<title>Монтажная область 1укр_іt_рейтинг</title>
<g id="Слой_2">
	<g id="Слой_1-2">
		<path class="st0" d="M313,57.9h25.9c6.7,0,12.1,1.6,16.1,4.8s6,8.1,6,14.5s-2,11.1-5.9,14.3s-9.1,4.8-15.4,4.8h-13.5V118H313V57.9
			z M326.1,68.7V86h11.7c6.9,0,10.3-2.9,10.3-8.6s-3.4-8.6-10.2-8.7H326.1z"/>
		<path class="st0" d="M410.3,104.5c-1.2,4.4-3.8,8.2-7.5,10.9c-3.8,2.6-8.4,4-13,3.9c-6.7,0-12.1-2.1-16.2-6.2s-6.1-9.7-6.1-16.5
			s2.1-12.3,6.2-16.7c4-4.4,9.8-6.8,15.7-6.6c6.6,0,11.8,2.2,15.7,6.7s5.8,10.5,5.9,18.2v1.2h-31.3c0.1,3.8,1,6.6,2.8,8.6
			c1.9,2.1,4.7,3.2,7.5,3c4.2,0,7.2-2.1,8.9-6.3L410.3,104.5z M398.8,91.7c-0.2-2.6-1.2-5.1-2.8-7.1c-1.7-1.9-4.1-2.9-6.6-2.7
			c-2.5-0.1-4.8,0.9-6.6,2.6c-1.8,2-2.9,4.5-3.1,7.2H398.8z"/>
		<path class="st0" d="M460,118h-11.5V88.5L433,118h-13.6V74.4h11.5v29.5l15.5-29.4H460V118z M448.7,57.9h4.7
			c0,8.1-4.6,12.2-13.8,12.2s-13.8-4.1-13.8-12.2h4.7c0.7,3.7,3.8,5.6,9,5.6S447.9,61.6,448.7,57.9z"/>
		<path class="st0" d="M507.6,83.6h-14.4V118h-11.9V83.6H467v-9.2h40.6V83.6z"/>
		<path class="st0" d="M555.1,118h-11.5V88.5L528.1,118h-13.6V74.4H526v29.5l15.5-29.4h13.6V118z"/>
		<path class="st0" d="M606.5,118h-11.9V99.7h-16.8V118H566V74.4h11.9v15.8h16.8V74.4h11.9L606.5,118z"/>
		<path class="st0" d="M650.3,83.6h-21V118h-11.9V74.4h32.9L650.3,83.6z"/>
		<path class="st0" d="M226.5,196.6V186c1.9,0.8,4,1.3,6.1,1.3c1.6,0.1,3.1-0.4,4.3-1.4c1-0.9,1.6-2.2,1.5-3.5c0-0.5-0.1-1-0.2-1.5
			c-0.1-0.5-0.3-1.1-0.5-1.6c-0.1-0.5-0.3-1-0.6-1.4c-0.2-0.4-0.4-0.9-0.8-1.6s-0.6-1.2-0.7-1.4l-16.9-35.6h14l13,30.4l12.8-30.4
			H272l-19.4,42.4c-2.7,6.1-5.5,10.3-8.3,12.7s-6.4,3.6-10.9,3.6C231,198,228.7,197.5,226.5,196.6z"/>
		<path class="st0" d="M315.2,196.9h-13.9l-12.1-18l-5.1,5.2v12.8h-11.3v-41.7h11.3v16.5l15.3-16.5h13.5l-16.2,16.2L315.2,196.9z"/>
		<path class="st0" d="M329.9,155.1v5.2c3-4.2,7.3-6.3,13-6.3c5.2-0.2,10.2,2.1,13.5,6.1c3.4,4,5.1,9.4,5.1,16.2
			c0,6.5-1.7,11.8-5,15.7c-3.2,3.9-8.1,6.2-13.2,6c-5.6,0-9.9-2.1-12.9-6.2v20H319v-56.6L329.9,155.1L329.9,155.1z M340,163.2
			c-2.8-0.2-5.6,1.1-7.3,3.4c-1.8,2.3-2.7,5.4-2.7,9.5s0.9,7.2,2.7,9.5c1.8,2.3,4.5,3.5,7.4,3.4c2.8,0.1,5.5-1.2,7.2-3.4
			c1.8-2.3,2.6-5.4,2.6-9.3c0-4.1-0.9-7.2-2.7-9.6C345.5,164.4,342.8,163.1,340,163.2L340,163.2z"/>
		<path class="st0" d="M406.3,196.9h-11.6c-0.4-1.3-0.7-2.6-0.8-4c-3.6,3.5-8.5,5.4-13.5,5.3c-4.7,0-8.3-1.1-10.9-3.4
			c-2.7-2.3-4.2-5.7-4-9.3c0-1.6,0.2-3.2,0.7-4.7c0.4-1.3,1.2-2.5,2.3-3.4c0.9-0.8,1.9-1.6,3-2.3c1.2-0.7,2.5-1.2,3.9-1.5
			c1.7-0.4,3-0.7,4-0.9s2.5-0.4,4.3-0.6c2.8-0.3,5.5-0.8,8.1-1.7c1.3-0.5,2.2-1.9,2.1-3.3c0-3.7-2.5-5.6-7.5-5.6
			c-2.6,0-4.6,0.5-5.8,1.4s-2,2.6-2.4,5h-10.7c0.7-9.4,7.1-14.1,19.4-14.1c12.1,0,18.2,4.5,18.2,13.6v18.1
			C404.9,190.9,405.3,194.6,406.3,196.9z M393.8,176.6c-1.3,0.8-4,1.5-8.1,2.2c-3.4,0.5-5.6,1.2-6.6,2c-2.3,2.3-2.4,6-0.1,8.3
			c0,0,0,0,0,0c1.3,1.1,2.9,1.6,4.6,1.5c2.7,0.1,5.3-0.7,7.4-2.4c1.9-1.7,2.9-4.2,2.8-6.8L393.8,176.6z"/>
		<rect x="413.1" y="155.1" class="st0" width="11" height="41.8"/>
		<path class="st0" d="M470.8,196.9h-11.4v-17.6h-16.1v17.6h-11.4v-41.8h11.4v15.1h16.1v-15.1h11.4V196.9z"/>
		
			<linearGradient id="SVGID_1_" gradientUnits="userSpaceOnUse" x1="-1427.3226" y1="-1612.6683" x2="-1379.8625" y2="-1407.4384" gradientTransform="matrix(0.9436 0.3312 0.3312 -0.9436 1918.9081 -731.803)">
			<stop  offset="0" style="stop-color:#3717B1"/>
			<stop  offset="0.11" style="stop-color:#3D35C1"/>
			<stop  offset="0.43" style="stop-color:#4E87EE"/>
			<stop  offset="0.57" style="stop-color:#55A7FF"/>
			<stop  offset="1" style="stop-color:#8FDBFF"/>
		</linearGradient>
		<path class="st1" d="M162.7,243.1c-9.3,11.1-25.8,12.6-36.9,3.3c0,0,0,0,0,0l0,0l-61.3-51.3c-11.2-9.3-12.6-25.9-3.3-37.1
			c0,0,0,0,0,0c1.2-1.4,2.5-2.6,3.9-3.8l48.4-38.3l-2,2c-28,27.6,11.2,57.5,11.2,57.5l18,15.1l18.7,15.7
			c11.1,9.2,12.6,25.6,3.4,36.7C162.8,243,162.7,243,162.7,243.1L162.7,243.1z"/>
		
			<linearGradient id="SVGID_2_" gradientUnits="userSpaceOnUse" x1="-1241.7177" y1="-1734.0863" x2="-1163.1276" y2="-1612.8263" gradientTransform="matrix(0.9543 0.2989 0.2989 -0.9543 1782.3909 -1074.9658)">
			<stop  offset="0" style="stop-color:#3717B1"/>
			<stop  offset="0.11" style="stop-color:#3D35C1"/>
			<stop  offset="0.43" style="stop-color:#4E87EE"/>
			<stop  offset="0.57" style="stop-color:#55A7FF"/>
			<stop  offset="1" style="stop-color:#8FDBFF"/>
		</linearGradient>
		<path class="st2" d="M158.9,146.2l-0.7,0.6L158,147l-5.9,5l-1.1,0.9c-21.4,16.9-21.7,28.2,8.5,53.5l-18.7-15.7l-18-15.1
			c0,0-39.2-29.9-11.2-57.5l2-2l0,0l12.8-10.8c11.3-8.9,27.6-7.2,36.7,4l0.1,0.2C172.1,120.8,170.2,137.2,158.9,146.2L158.9,146.2z"
			/>
		
			<linearGradient id="SVGID_3_" gradientUnits="userSpaceOnUse" x1="128.9922" y1="-10593.1895" x2="176.4522" y2="-10387.96" gradientTransform="matrix(-0.9422 -0.335 -0.335 0.9422 -3294.2405 9961.8438)">
			<stop  offset="0" style="stop-color:#FF9C1C"/>
			<stop  offset="0.51" style="stop-color:#FFD91F"/>
		</linearGradient>
		<path class="st3" d="M7.5,11.2c9.3-11,25.9-12.4,36.9-3c0,0,0,0,0,0l0,0L105.2,60c11.1,9.4,12.4,26,3,37.1c0,0,0,0,0,0
			c-1.2,1.4-2.5,2.6-3.9,3.7l-48.7,37.9c0.7-0.7,1.3-1.4,2-2c28.3-27.4-10.8-57.6-10.8-57.6L29.1,64L10.4,48.2
			C-0.6,38.8-1.9,22.2,7.5,11.2z"/>
		
			<linearGradient id="SVGID_4_" gradientUnits="userSpaceOnUse" x1="61.721" y1="-10732.7002" x2="130.0311" y2="-10627.2998" gradientTransform="matrix(-0.9521 -0.3059 -0.3059 0.9521 -3155.3994 10301.8389)">
			<stop  offset="0" style="stop-color:#FF9C1C"/>
			<stop  offset="0.51" style="stop-color:#FFD91F"/>
		</linearGradient>
		<path class="st4" d="M11.1,107.6l0.7-0.5l0.2-0.2l5.4-4.3l1.2-0.9c21.5-16.8,21.9-28-8.1-53.5L29.1,64L47,79.2
			c0,0,39,30.2,10.8,57.6l-2,2l0,0L43.4,149c-11.3,8.8-27.7,6.9-36.6-4.4l-0.1-0.2c-9-11.2-7.1-27.6,4.1-36.5
			C10.9,107.8,11,107.7,11.1,107.6z"/>
		<path class="st0" d="M233.1,57.8v60.5h-13.3V57.8H233.1z"/>
		<path class="st0" d="M289.8,57.8v11.3h-18.2v49.2h-13.4V69.1H240V57.8H289.8z"/>
	</g>
</g>
<path class="st0" d="M518.3,196.9h-11v-28.3l-14.9,28.3h-13v-41.8h11v28.2l14.9-28.2h13V196.9z"/>
<circle class="st0" cx="410.6" cy="144.6" r="5.4"/>
<circle class="st0" cx="426.5" cy="144.6" r="5.4"/>
</svg>
